<svg width="2457" height="1922" viewBox="0 0 2457 1922" fill="none" xmlns="http://www.w3.org/2000/svg">
<path d="M2456.46 1921L0.9999 1921" stroke="black" stroke-opacity="0.3" stroke-width="0.608981" stroke-linecap="round"/>
<path d="M2456.46 1844.2L0.999412 1844.2" stroke="black" stroke-opacity="0.3" stroke-width="0.608981" stroke-linecap="round"/>
<path d="M2456.46 1767.4L0.999412 1767.4" stroke="black" stroke-opacity="0.3" stroke-width="0.608981" stroke-linecap="round"/>
<path d="M2456.46 1690.6L0.999656 1690.6" stroke="black" stroke-opacity="0.3" stroke-width="0.608981" stroke-linecap="round"/>
<path d="M2456.46 1613.8L0.999656 1613.8" stroke="black" stroke-opacity="0.3" stroke-width="0.608981" stroke-linecap="round"/>
<path d="M2456.46 1537L0.999656 1537" stroke="black" stroke-opacity="0.3" stroke-width="0.608981" stroke-linecap="round"/>
<path d="M2456.46 1460.2L0.999656 1460.2" stroke="black" stroke-opacity="0.3" stroke-width="0.608981" stroke-linecap="round"/>
<path d="M2456.46 1383.4L0.999656 1383.4" stroke="black" stroke-opacity="0.3" stroke-width="0.608981" stroke-linecap="round"/>
<path d="M2456.46 1306.6L0.999656 1306.6" stroke="black" stroke-opacity="0.3" stroke-width="0.608981" stroke-linecap="round"/>
<path d="M2456.46 1229.8L0.999656 1229.8" stroke="black" stroke-opacity="0.3" stroke-width="0.608981" stroke-linecap="round"/>
<path d="M2456.46 1153L0.999656 1153" stroke="black" stroke-opacity="0.3" stroke-width="0.608981" stroke-linecap="round"/>
<path d="M2456.46 1076.2L0.999656 1076.2" stroke="black" stroke-opacity="0.3" stroke-width="0.608981" stroke-linecap="round"/>
<path d="M2456.46 999.4L0.999656 999.4" stroke="black" stroke-opacity="0.3" stroke-width="0.608981" stroke-linecap="round"/>
<path d="M2456.46 922.6L0.999656 922.6" stroke="black" stroke-opacity="0.3" stroke-width="0.608981" stroke-linecap="round"/>
<path d="M2456.46 845.8L0.999656 845.8" stroke="black" stroke-opacity="0.3" stroke-width="0.608981" stroke-linecap="round"/>
<path d="M2456.46 769L0.9999 769" stroke="black" stroke-opacity="0.3" stroke-width="0.608981" stroke-linecap="round"/>
<path d="M2456.46 692.2L0.9999 692.2" stroke="black" stroke-opacity="0.3" stroke-width="0.608981" stroke-linecap="round"/>
<path d="M2456.46 615.4L0.9999 615.4" stroke="black" stroke-opacity="0.3" stroke-width="0.608981" stroke-linecap="round"/>
<path d="M2456.46 538.6L0.9999 538.6" stroke="black" stroke-opacity="0.3" stroke-width="0.608981" stroke-linecap="round"/>
<path d="M2456.46 461.8L0.999656 461.8" stroke="black" stroke-opacity="0.3" stroke-width="0.608981" stroke-linecap="round"/>
<path d="M2456.46 385L0.999656 385" stroke="black" stroke-opacity="0.3" stroke-width="0.608981" stroke-linecap="round"/>
<path d="M2456.46 308.2L0.999656 308.2" stroke="black" stroke-opacity="0.3" stroke-width="0.608981" stroke-linecap="round"/>
<path d="M2456.46 231.4L0.999656 231.4" stroke="black" stroke-opacity="0.3" stroke-width="0.608981" stroke-linecap="round"/>
<path d="M2456.46 154.6L0.999412 154.6" stroke="black" stroke-opacity="0.3" stroke-width="0.608981" stroke-linecap="round"/>
<path d="M2456.46 77.8L0.999412 77.8002" stroke="black" stroke-opacity="0.3" stroke-width="0.608981" stroke-linecap="round"/>
<path d="M2456.46 1L0.999412 1.00013" stroke="black" stroke-opacity="0.3" stroke-width="0.608981" stroke-linecap="round"/>
<path d="M1919.33 1.00024L1919.33 1921" stroke="black" stroke-opacity="0.3" stroke-width="0.608981" stroke-linecap="round"/>
<path d="M1996.06 1L1996.06 1921" stroke="black" stroke-opacity="0.3" stroke-width="0.608981" stroke-linecap="round"/>
<path d="M1842.59 1.00024L1842.59 1921" stroke="black" stroke-opacity="0.3" stroke-width="0.608981" stroke-linecap="round"/>
<path d="M1765.86 1.00024L1765.86 1921" stroke="black" stroke-opacity="0.3" stroke-width="0.608981" stroke-linecap="round"/>
<path d="M1689.13 1.00024L1689.13 1921" stroke="black" stroke-opacity="0.3" stroke-width="0.608981" stroke-linecap="round"/>
<path d="M1612.39 1.00024L1612.39 1921" stroke="black" stroke-opacity="0.3" stroke-width="0.608981" stroke-linecap="round"/>
<path d="M1535.66 1.00024L1535.66 1921" stroke="black" stroke-opacity="0.3" stroke-width="0.608981" stroke-linecap="round"/>
<path d="M1458.93 1.00024L1458.93 1921" stroke="black" stroke-opacity="0.3" stroke-width="0.608981" stroke-linecap="round"/>
<path d="M1382.2 1.00024L1382.2 1921" stroke="black" stroke-opacity="0.3" stroke-width="0.608981" stroke-linecap="round"/>
<path d="M1305.46 1.00024L1305.46 1921" stroke="black" stroke-opacity="0.3" stroke-width="0.608981" stroke-linecap="round"/>
<path d="M1228.73 1.00024L1228.73 1921" stroke="black" stroke-opacity="0.3" stroke-width="0.608981" stroke-linecap="round"/>
<path d="M1152 1L1152 1921" stroke="black" stroke-opacity="0.3" stroke-width="0.608981" stroke-linecap="round"/>
<path d="M1075.26 1L1075.26 1921" stroke="black" stroke-opacity="0.3" stroke-width="0.608981" stroke-linecap="round"/>
<path d="M998.53 1.00024L998.53 1921" stroke="black" stroke-opacity="0.3" stroke-width="0.608981" stroke-linecap="round"/>
<path d="M921.797 1.00024L921.797 1921" stroke="black" stroke-opacity="0.3" stroke-width="0.608981" stroke-linecap="round"/>
<path d="M845.063 1.00024L845.064 1921" stroke="black" stroke-opacity="0.3" stroke-width="0.608981" stroke-linecap="round"/>
<path d="M768.331 1.00024L768.331 1921" stroke="black" stroke-opacity="0.3" stroke-width="0.608981" stroke-linecap="round"/>
<path d="M691.597 1.00024L691.598 1921" stroke="black" stroke-opacity="0.3" stroke-width="0.608981" stroke-linecap="round"/>
<path d="M614.864 1.00024L614.865 1921" stroke="black" stroke-opacity="0.3" stroke-width="0.608981" stroke-linecap="round"/>
<path d="M538.131 1.00024L538.131 1921" stroke="black" stroke-opacity="0.3" stroke-width="0.608981" stroke-linecap="round"/>
<path d="M461.398 1.00024L461.398 1921" stroke="black" stroke-opacity="0.3" stroke-width="0.608981" stroke-linecap="round"/>
<path d="M384.665 1.00024L384.665 1921" stroke="black" stroke-opacity="0.3" stroke-width="0.608981" stroke-linecap="round"/>
<path d="M307.932 1.00024L307.932 1921" stroke="black" stroke-opacity="0.3" stroke-width="0.608981" stroke-linecap="round"/>
<path d="M231.199 1.00024L231.199 1921" stroke="black" stroke-opacity="0.3" stroke-width="0.608981" stroke-linecap="round"/>
<path d="M154.466 1.00024L154.466 1921" stroke="black" stroke-opacity="0.3" stroke-width="0.608981" stroke-linecap="round"/>
<path d="M77.7329 1.00024L77.733 1921" stroke="black" stroke-opacity="0.3" stroke-width="0.608981" stroke-linecap="round"/>
<path d="M1 1.00024L1.00008 1921" stroke="black" stroke-opacity="0.3" stroke-width="0.608981" stroke-linecap="round"/>
<path d="M2072.79 1L2072.79 1921" stroke="black" stroke-opacity="0.3" stroke-width="0.608981" stroke-linecap="round"/>
<path d="M2149.53 1L2149.53 1921" stroke="black" stroke-opacity="0.3" stroke-width="0.608981" stroke-linecap="round"/>
<path d="M2226.26 1L2226.26 1921" stroke="black" stroke-opacity="0.3" stroke-width="0.608981" stroke-linecap="round"/>
<path d="M2302.99 1L2302.99 1921" stroke="black" stroke-opacity="0.3" stroke-width="0.608981" stroke-linecap="round"/>
<path d="M2379.72 1L2379.72 1921" stroke="black" stroke-opacity="0.3" stroke-width="0.608981" stroke-linecap="round"/>
<path d="M2456.46 1L2456.46 1921" stroke="black" stroke-opacity="0.3" stroke-width="0.608981" stroke-linecap="round"/>
</svg>
