<svg width="24" height="24" viewBox="0 0 24 24" fill="none" xmlns="http://www.w3.org/2000/svg">
<path fill-rule="evenodd" clip-rule="evenodd" d="M14 4C14 4.09659 13.9863 4.18997 13.9608 4.27833C16.8724 5.12623 19 7.81465 19 11V15H20C20.5523 15 21 15.4477 21 16C21 16.5523 20.5523 17 20 17H4C3.44772 17 3 16.5523 3 16C3 15.4477 3.44772 15 4 15H5V11C5 7.81465 7.12761 5.12623 10.0392 4.27833C10.0137 4.18997 10 4.09659 10 4C10 3.44772 10.4477 3 11 3H13C13.5523 3 14 3.44772 14 4ZM13 12C13 12.5523 13.4477 13 14 13C14.5523 13 15 12.5523 15 12V10C15 9.44772 14.5523 9 14 9C13.4477 9 13 9.44772 13 10V12Z" fill="white"/>
<path fill-rule="evenodd" clip-rule="evenodd" d="M15.8106 18.4892C16.134 18.9368 16.0333 19.5619 15.5857 19.8854C14.61 20.5904 13.3512 21 11.9995 21C10.6023 21 9.35107 20.4874 8.41434 19.8106C7.96668 19.4871 7.86599 18.862 8.18944 18.4143C8.5129 17.9667 9.138 17.866 9.58566 18.1894C10.2414 18.6633 11.0913 19 11.9995 19C12.9533 19 13.7975 18.71 14.4143 18.2643C14.862 17.9408 15.4871 18.0415 15.8106 18.4892Z" fill="white"/>
</svg>
