<svg width="24" height="24" viewBox="0 0 24 24" fill="none" xmlns="http://www.w3.org/2000/svg">
<path fill-rule="evenodd" clip-rule="evenodd" d="M13.4927 4.1298C13.8062 4.30731 14 4.63973 14 5V19C14 19.3603 13.8062 19.6927 13.4927 19.8702C13.1792 20.0477 12.7944 20.0429 12.4855 19.8575L7.72302 17H6C4.34315 17 3 15.6569 3 14V10C3 8.34315 4.34315 7 6 7H7.72302L12.4855 4.14251C12.7944 3.95715 13.1792 3.95229 13.4927 4.1298ZM8 9C8.55228 9 9 9.44772 9 10V14C9 14.5523 8.55228 15 8 15C7.44772 15 7 14.5523 7 14V10C7 9.44772 7.44772 9 8 9Z" fill="white"/>
<path d="M17.4567 7.25487C17.8682 6.88655 18.5004 6.92157 18.8687 7.3331C19.9766 8.57086 20.6514 10.2078 20.6514 12C20.6514 13.8444 19.813 15.4725 18.7451 16.6657C18.3768 17.0772 17.7446 17.1122 17.3331 16.7439C16.9216 16.3756 16.8865 15.7434 17.2549 15.3318C18.0871 14.402 18.6514 13.2291 18.6514 12C18.6514 10.7188 18.1708 9.55218 17.3785 8.66692C17.0101 8.2554 17.0451 7.6232 17.4567 7.25487Z" fill="white"/>
<path d="M15.3949 9.25362C15.8064 8.8853 16.4386 8.92032 16.807 9.33184C17.44 10.0391 17.8261 10.9755 17.8261 11.9997C17.8261 13.0761 17.3382 14.0043 16.7451 14.6669C16.3768 15.0784 15.7446 15.1135 15.3331 14.7451C14.9216 14.3768 14.8865 13.7446 15.2549 13.3331C15.6123 12.9337 15.8261 12.4608 15.8261 11.9997C15.8261 11.4865 15.6342 11.0204 15.3167 10.6657C14.9484 10.2541 14.9834 9.62195 15.3949 9.25362Z" fill="white"/>
</svg>
