<svg width="24" height="24" viewBox="0 0 24 24" fill="none" xmlns="http://www.w3.org/2000/svg">
<path fill-rule="evenodd" clip-rule="evenodd" d="M9.18023 3.5C6.04313 3.5 3.5 6.04313 3.5 9.18023C3.5 11.0387 4.39303 12.6887 5.77125 13.7242L5.78251 13.7326L5.79424 13.7404C6.5817 14.2654 7.15797 14.6701 7.56019 15.2597C7.95107 15.8326 8.20929 16.6334 8.20929 18C8.20929 19.4204 9.36045 20.5721 10.7811 20.5721C11.2631 20.5721 12.5888 20.5182 13.416 19.2774C13.7235 18.8162 13.8997 18.2092 14.0118 17.5759C14.1253 16.9341 14.1811 16.2142 14.2178 15.4955C14.2372 15.1156 14.2515 14.7389 14.2654 14.3719C14.3054 13.3141 14.3424 12.3371 14.4902 11.5981C14.6908 10.5954 14.7836 10.0438 14.826 9.7173C14.8644 9.42191 14.8623 9.29923 14.8609 9.21807C14.8607 9.2045 14.8605 9.19209 14.8605 9.18023C14.8605 6.04313 12.3173 3.5 9.18023 3.5ZM9.22523 7.75C8.6095 7.75 8.11035 8.24915 8.11035 8.86488V9.48651C8.11035 9.90073 7.77457 10.2365 7.36035 10.2365C6.94614 10.2365 6.61035 9.90073 6.61035 9.48651V8.86488C6.61035 7.42072 7.78108 6.25 9.22523 6.25C10.6694 6.25 11.8401 7.42072 11.8401 8.86488V9.46333C11.8404 9.47102 11.8405 9.47874 11.8405 9.48648C11.8405 9.87729 11.5416 10.1983 11.1599 10.2333C11.1369 10.2354 11.1136 10.2365 11.0901 10.2365L11.0848 10.2365C10.4717 10.2396 9.97559 10.7375 9.97559 11.3514C9.97559 11.9671 10.4747 12.4662 11.0905 12.4662C11.5047 12.4662 11.8405 12.802 11.8405 13.2162C11.8405 13.6305 11.5047 13.9662 11.0905 13.9662C9.64631 13.9662 8.47559 12.7955 8.47559 11.3514C8.47559 10.1681 9.26158 9.16833 10.34 8.84578C10.3298 8.23886 9.83459 7.75 9.22523 7.75ZM11.75 15.5C11.75 15.0858 11.4142 14.75 11 14.75C10.5858 14.75 10.25 15.0858 10.25 15.5V16C10.25 16.4142 10.5858 16.75 11 16.75C11.4142 16.75 11.75 16.4142 11.75 16V15.5Z" fill="white"/>
<path d="M17.4567 9.25486C17.8682 8.88653 18.5004 8.92155 18.8687 9.33308C19.9766 10.5708 20.6514 12.2078 20.6514 14C20.6514 15.8444 19.813 17.4725 18.7451 18.6657C18.3768 19.0772 17.7446 19.1122 17.3331 18.7439C16.9216 18.3756 16.8865 17.7434 17.2549 17.3318C18.0871 16.402 18.6514 15.2291 18.6514 14C18.6514 12.7188 18.1708 11.5522 17.3785 10.6669C17.0101 10.2554 17.0451 9.62319 17.4567 9.25486Z" fill="white"/>
<path d="M15.3949 11.2536C15.8064 10.8853 16.4386 10.9203 16.807 11.3318C17.44 12.0391 17.8261 12.9755 17.8261 13.9997C17.8261 15.076 17.3382 16.0043 16.7451 16.6669C16.3768 17.0784 15.7446 17.1135 15.3331 16.7451C14.9216 16.3768 14.8865 15.7446 15.2549 15.3331C15.6123 14.9337 15.8261 14.4607 15.8261 13.9997C15.8261 13.4864 15.6342 13.0204 15.3167 12.6657C14.9484 12.2541 14.9834 11.6219 15.3949 11.2536Z" fill="white"/>
</svg>
