<svg width="24" height="24" viewBox="0 0 24 24" fill="none" xmlns="http://www.w3.org/2000/svg">
<path fill-rule="evenodd" clip-rule="evenodd" d="M12 2C9.23858 2 7 4.23858 7 7V11C7 13.7614 9.23858 16 12 16C14.7614 16 17 13.7614 17 11V7C17 4.23858 14.7614 2 12 2ZM13 10C12.4477 10 12 9.55228 12 9L12 7C12 6.44772 12.4477 6 13 6C13.5523 6 14 6.44772 14 7L14 9C14 9.55228 13.5523 10 13 10Z" fill="white"/>
<path d="M5.68287 14.1798C6.13585 13.8638 6.75919 13.9749 7.07516 14.4279C8.1611 15.9848 9.96221 17 12.0003 17C14.0384 17 15.8395 15.9848 16.9254 14.4279C17.2414 13.9749 17.8647 13.8638 18.3177 14.1798C18.7707 14.4958 18.8817 15.1191 18.5658 15.5721C17.3016 17.3845 15.303 18.6509 13 18.9381V21C13 21.5523 12.5523 22 12 22C11.4477 22 11 21.5523 11 21V18.938C8.69726 18.6507 6.69886 17.3843 5.43478 15.5721C5.11882 15.1191 5.2299 14.4958 5.68287 14.1798Z" fill="white"/>
</svg>
