<svg width="180" height="30" viewBox="0 0 180 30" fill="none" xmlns="http://www.w3.org/2000/svg">
<path d="M57.0722 17.7567C56.6484 16.6009 56.3016 15.3295 55.9934 14.0195L55.6081 14.0581C55.2614 14.7901 54.9917 15.5606 54.8376 16.2926C54.6449 17.0632 54.5679 17.7952 54.5293 18.5658C54.4908 19.3363 54.5679 20.0683 54.722 20.8004C54.8761 21.5324 55.1458 22.2644 55.5696 22.9194L58.6903 20.8004C58.3821 20.3766 58.0739 19.9142 57.8042 19.4134C57.5345 18.874 57.2648 18.3346 57.0722 17.7567Z" fill="white"/>
<path d="M70.6305 5.852C69.6674 5.852 68.5886 5.852 68.5886 5.852C67.8566 8.74156 67.009 12.2861 66.2769 15.1756C65.7761 17.1791 65.4679 19.221 64.6203 21.1859C63.7341 23.2664 62.1545 24.8845 59.9199 26.0018C59.997 25.9633 60.1126 26.0018 60.1896 26.0018C60.3437 26.0018 60.4593 26.0018 60.6134 25.9633C60.9987 25.9248 61.4225 25.8477 61.8463 25.7707C64.1194 25.2313 66.2769 23.7672 67.6639 21.8794C68.1648 21.1859 68.5501 20.4539 68.7427 19.6833L72.1716 5.81348H71.6322C71.5937 5.852 70.6305 5.852 70.6305 5.852Z" fill="white"/>
<path d="M63.8513 14.7897C63.9284 14.4044 64.044 14.0191 64.1981 13.6338C64.3137 13.2486 64.4678 12.8633 64.6604 12.478H61.1929C61.1929 12.8633 61.1544 13.2486 61.0773 13.6338C61.0003 14.0191 60.9232 14.4044 60.8462 14.7897C60.6535 15.5602 60.4224 16.3308 60.0371 17.1013H63.5046C63.5431 16.3308 63.6972 15.5602 63.8513 14.7897Z" fill="white"/>
<path d="M56.1838 7.5088C56.4149 7.43175 56.6461 7.39322 56.8773 7.31617C57.8405 6.96942 58.8422 6.54562 59.8054 5.92918L58.1102 3.50195C57.4937 3.92575 56.8002 4.31103 56.0682 4.73483C55.3362 5.1201 54.5271 5.50538 53.718 5.85212C52.909 6.19887 52.0613 6.54562 51.2137 6.85384C50.3661 7.16206 49.48 7.5088 48.5939 7.81702L48.5554 8.16377C49.4415 8.27935 50.3276 8.31788 51.2137 8.27935C51.599 8.27935 51.9843 8.24082 52.331 8.2023C52.1384 9.31959 51.9072 10.3984 51.6761 11.5157C51.6376 11.6312 51.6375 11.7853 51.599 11.9009C51.2523 11.9009 50.867 11.9009 50.5203 11.9009C49.5956 11.8624 48.7095 11.8624 47.8233 11.7853L47.4766 13.2109C48.3627 13.1723 49.2488 13.1338 50.0965 13.1338C50.0579 13.2109 50.0579 13.3264 50.0194 13.4035C49.9038 13.6732 49.8268 13.9814 49.7112 14.2511C49.48 14.7905 49.1718 15.3684 48.8636 15.9078C48.1701 17.1021 47.284 18.2194 46.2437 19.2597C45.0879 20.4155 43.7394 21.3787 42.2754 22.1107C42.3524 22.0722 42.5451 22.1107 42.6221 22.1107C42.8148 22.1107 43.0074 22.0722 43.2 22.0722C43.7394 22.0336 44.3173 21.918 44.8567 21.8025C46.0511 21.5328 47.2454 21.0704 48.3242 20.4155C48.3627 20.377 48.4012 20.377 48.4398 20.3384C48.825 20.1073 49.1718 19.8761 49.5185 19.6449C49.5956 19.5679 49.6727 19.5293 49.7882 19.4523C49.6341 19.9917 49.5185 20.5311 49.3644 21.0704C48.9021 22.6501 48.4398 24.2682 47.9389 25.8478H51.7917C52.0228 24.2682 52.3696 22.6501 52.6778 21.0704C53.0245 19.4908 53.3713 17.8727 53.7566 16.293C54.0262 15.2143 54.2959 14.174 54.5656 13.0953C54.9509 13.0953 55.2977 13.0953 55.6829 13.0953C56.6076 13.1338 57.4937 13.1338 58.3798 13.2109L58.7266 11.7853C57.8019 11.8239 56.8773 11.8624 55.9526 11.9009C55.5673 11.9009 55.2206 11.9009 54.8353 11.9009C54.8739 11.7853 54.9124 11.6312 54.9509 11.5157C55.3362 10.1672 55.76 8.81873 56.1838 7.5088Z" fill="white"/>
<path d="M136.439 5.19727C136.015 5.19727 135.553 5.19727 135.129 5.19727C134.397 5.23579 133.627 5.23579 132.895 5.23579H130.66C129.928 5.23579 129.196 5.19727 128.464 5.19727L128.117 6.62278C128.849 6.58425 129.62 6.58425 130.352 6.58425H132.586C133.318 6.58425 134.05 6.62278 134.782 6.62278C135.245 6.62278 135.746 6.62278 136.208 6.62278C135.977 7.85566 135.746 9.12706 135.437 10.3599C135.129 11.7084 134.821 13.0569 134.474 14.4438C133.896 14.4438 133.318 14.4824 132.779 14.4824H130.544H128.31C127.578 14.4824 126.846 14.4438 126.114 14.4438L125.767 15.8694C126.499 15.8308 127.27 15.8308 128.002 15.8308H130.236H132.471C133.049 15.8308 133.588 15.8694 134.166 15.8694C133.742 17.4875 133.318 19.1057 132.856 20.7238C132.509 21.9567 132.124 23.2281 131.739 24.461C131.276 24.461 130.776 24.461 130.313 24.461C129.581 24.4995 128.811 24.4995 128.079 24.4995H125.883C125.151 24.4995 124.419 24.461 123.687 24.461L123.34 25.8865C124.072 25.848 124.842 25.848 125.574 25.848H127.809C128.541 25.848 129.273 25.8865 130.005 25.8865C130.429 25.8865 130.891 25.8865 131.315 25.8865H132.086C132.124 25.8865 132.201 25.8865 132.24 25.8865H135.553C135.823 24.1527 136.169 22.4575 136.555 20.7238C136.94 18.9901 137.325 17.2949 137.788 15.5611C138.211 13.8274 138.674 12.1322 139.175 10.3985C139.675 8.66473 140.176 6.96953 140.793 5.23579L136.439 5.19727Z" fill="white"/>
<path d="M125.534 10.3599C126.035 8.6262 126.536 6.931 127.152 5.19727H122.914C122.644 6.931 122.298 8.6262 121.912 10.3599C121.527 12.0937 121.142 13.7889 120.68 15.5226C120.256 17.2563 119.793 18.9515 119.293 20.6853C118.792 22.419 118.291 24.1142 117.713 25.8479H121.951C122.221 24.1142 122.567 22.419 122.953 20.6853C123.338 18.9515 123.723 17.2563 124.147 15.5226C124.571 13.7889 125.033 12.0937 125.534 10.3599Z" fill="white"/>
<path d="M31.4499 12.6328C30.9105 12.6328 30.3325 12.6328 29.7931 12.6328C29.2923 12.6328 28.753 12.6714 28.2521 12.6714C28.4063 12.0164 28.5989 11.3614 28.7915 10.7065C29.2539 9.08831 29.7162 7.43163 30.2556 5.81348H26.4028C26.1717 7.43163 25.8249 9.08831 25.5167 10.7065C25.3626 11.3614 25.2469 12.0164 25.0928 12.6714C24.3222 12.6714 23.5902 12.6328 22.8197 12.6328L22.4729 14.0583C23.2436 14.0198 24.0141 14.0198 24.7847 14.0198C24.6691 14.5592 24.515 15.0986 24.3994 15.638C24.1682 16.6011 23.8985 17.5643 23.6674 18.566H21.5869C20.9705 18.566 20.354 18.566 19.7376 18.5275C19.9687 17.6799 20.1614 16.7938 20.4311 15.9462C20.7393 14.8289 21.086 13.7501 21.5098 12.6328H17.5415C17.4259 13.7501 17.2333 14.8289 17.0407 15.9462C16.8095 17.0635 16.5782 18.1422 16.3085 19.2595C16.0389 20.3768 15.7693 21.4556 15.4225 22.5729C15.1143 23.6902 14.7675 24.769 14.3438 25.8862H18.1965H28.2136H32.0663C32.1818 24.769 32.3746 23.6902 32.6057 22.5729C32.7984 21.4556 33.068 20.3768 33.3377 19.2595C33.6073 18.1422 33.8771 17.0635 34.2239 15.9462C34.5321 14.8289 34.8789 13.7501 35.3027 12.6328H31.4499ZM23.0508 20.5309C22.7041 21.8409 22.3188 23.1123 21.9335 24.4222H18.4277C18.5432 23.8058 18.6203 23.1893 18.7744 22.5344C18.9285 21.6482 19.1211 20.7621 19.3523 19.876C19.9687 19.876 20.5852 19.8374 21.2402 19.8374H23.3206C23.1665 20.0686 23.1279 20.2998 23.0508 20.5309ZM29.2924 22.5344C29.0997 23.1508 28.9071 23.7672 28.7145 24.4222H25.5938C25.8248 23.1123 26.0561 21.8409 26.3643 20.5309C26.4028 20.2998 26.4799 20.0686 26.5184 19.8374H28.0595C28.7145 19.8374 29.3694 19.876 30.0244 19.876C29.7932 20.7621 29.5621 21.6482 29.2924 22.5344ZM30.9104 15.9462C30.7563 16.7938 30.5638 17.6799 30.3326 18.5275C29.6777 18.5275 29.0227 18.566 28.3677 18.566H26.788C27.0192 17.6029 27.2119 16.6397 27.4816 15.638C27.5972 15.0986 27.7512 14.5592 27.9053 14.0198C28.4061 14.0198 28.9456 14.0583 29.4465 14.0583C30.0629 14.0583 30.6793 14.0583 31.2572 14.0583C31.1416 14.6748 31.026 15.2912 30.9104 15.9462Z" fill="white"/>
<path d="M13.92 17.6024C13.6503 17.063 13.4191 16.5236 13.188 15.9457C12.9953 15.3678 12.8027 14.7513 12.6486 14.0964C12.5715 13.7881 12.4945 13.4414 12.4174 13.0946H13.4191C14.3438 13.0946 15.2299 13.1332 16.1546 13.1332L16.5013 11.7077C15.5767 11.7462 14.652 11.7462 13.7659 11.7462H12.6486C12.7257 11.515 12.7642 11.2839 12.8412 11.0912C13.3036 9.47307 13.7659 7.81639 14.3053 6.19824H10.4525C10.2214 7.81639 9.91315 9.47307 9.56641 11.0912C9.52788 11.3224 9.45082 11.5536 9.4123 11.7462H8.295C7.37034 11.7462 6.48421 11.7077 5.55956 11.7077L5.21281 13.1717C6.13747 13.1332 7.06213 13.1332 7.94826 13.1332H8.91144C8.87291 13.2102 8.87291 13.2873 8.83439 13.3643C8.75733 13.634 8.64175 13.9422 8.52617 14.2119C8.295 14.7513 7.98678 15.3292 7.67856 15.8686C6.98507 17.063 6.09894 18.1803 5.09723 19.2205C3.94141 20.3763 2.59295 21.3395 1.12891 22.0715C1.20596 22.033 1.3986 22.0715 1.47565 22.0715C1.66829 22.0715 1.86093 22.033 2.05356 22.033C2.59295 21.9945 3.17086 21.8789 3.71024 21.7633C4.90459 21.4936 6.09894 21.0313 7.17771 20.3763C7.21624 20.3378 7.25476 20.3378 7.29329 20.2993C7.25476 20.4919 7.17771 20.7231 7.13918 20.9157C6.67685 22.5339 6.21452 24.1905 5.67514 25.8087H9.52788C9.79757 24.1905 10.1058 22.5339 10.4525 20.9157C10.6452 20.0296 10.8378 19.1049 11.0304 18.2188C11.069 18.4114 11.1075 18.6426 11.146 18.8352C11.3001 19.5672 11.6084 20.2607 11.9936 20.8772L14.7676 18.9893C14.4979 18.6041 14.1512 18.1417 13.92 17.6024Z" fill="white"/>
<path d="M173.269 17.5635C172.883 17.5635 172.46 17.5635 172.074 17.5635H171.997C171.959 17.5635 171.959 17.5635 171.92 17.5635C171.458 17.5635 170.996 17.602 170.533 17.602C169.609 17.602 168.722 17.602 167.836 17.5635L167.49 18.989C168.414 18.9505 169.3 18.9505 170.225 18.9505C170.687 18.9505 171.111 18.989 171.574 18.989C171.651 18.989 171.689 18.989 171.766 18.989C171.574 19.9136 171.381 20.7998 171.15 21.7244C170.919 22.6106 170.649 23.5352 170.379 24.4214H164.677C164.87 23.5352 165.062 22.6106 165.294 21.7244C165.64 20.3374 166.026 18.9505 166.526 17.602H162.674C162.481 18.989 162.134 20.376 161.788 21.7244C161.441 23.1114 161.056 24.4984 160.555 25.8469H164.407H169.917H173.77C174.001 24.4599 174.309 23.0729 174.656 21.7244C175.002 20.3374 175.388 18.9505 175.889 17.602L173.269 17.5635Z" fill="white"/>
<path d="M172.383 5.85232H175.35C176.351 5.85232 177.314 5.89085 178.316 5.89085L178.663 4.46533C177.661 4.50386 176.659 4.50386 175.696 4.50386H172.73H169.763C168.761 4.50386 167.798 4.46533 166.796 4.46533L166.45 5.92937C167.143 5.92937 167.837 5.89085 168.569 5.89085C168.338 6.77698 168.029 8.04838 167.683 9.24273H165.602L165.255 10.6682H167.259C167.105 11.2076 166.912 11.67 166.758 12.0167C166.488 12.6331 166.141 13.211 165.756 13.7504C165.679 13.866 165.564 13.9816 165.487 14.0972C164.716 14.0972 163.945 14.0972 163.175 14.0587L162.828 15.4842C163.984 15.4456 165.14 15.4456 166.296 15.4456H169.725H173.153C174.309 15.4456 175.427 15.4842 176.582 15.4842L176.929 14.0587C176.621 14.0587 176.313 14.0587 176.043 14.0587C176.082 13.8275 176.12 13.5963 176.159 13.3652C176.236 12.9028 176.351 12.4405 176.467 11.9782C176.582 11.5158 176.698 11.0535 176.852 10.5912C177.006 10.1289 177.16 9.66653 177.314 9.2042H176.12H171.189C171.458 8.20249 171.805 6.8155 172.036 5.85232H172.383ZM173.616 10.6297C173.539 11.092 173.423 11.5158 173.308 11.9782C173.192 12.4405 173.076 12.9028 172.922 13.3652C172.845 13.5963 172.768 13.866 172.691 14.0972H170.033H168.492C168.607 13.9816 168.761 13.866 168.877 13.7504C169.224 13.4037 169.532 13.0569 169.802 12.7102C170.302 12.0552 170.649 11.3617 170.88 10.6297H173.616Z" fill="white"/>
<path d="M154.045 16.5237C154.777 16.4851 155.509 16.4466 156.241 16.4466C156.973 16.4466 157.705 16.4466 158.399 16.5237L158.745 15.0981C158.013 15.1752 157.281 15.1752 156.549 15.1752C155.817 15.1752 155.085 15.1752 154.392 15.0981L154.045 16.5237Z" fill="white"/>
<path d="M159.129 13.7126L159.476 12.2871C158.744 12.3642 158.012 12.3642 157.28 12.3642C156.548 12.3642 155.816 12.3642 155.122 12.2871L154.775 13.7126C155.507 13.6741 156.239 13.6356 156.971 13.6356C157.703 13.6356 158.435 13.6741 159.129 13.7126Z" fill="white"/>
<path d="M162.521 9.12706C161.789 9.16559 161.057 9.16559 160.325 9.16559H159.978C160.055 8.6262 160.171 8.04829 160.325 7.50891C160.517 6.73836 160.748 5.96781 161.095 5.19727H157.242C157.204 5.96781 157.011 6.73836 156.819 7.50891C156.665 8.04829 156.51 8.6262 156.318 9.16559H155.971C155.239 9.16559 154.507 9.12706 153.814 9.12706L153.467 10.5526C154.199 10.514 154.931 10.514 155.663 10.514H157.859H160.055C160.787 10.514 161.519 10.5526 162.213 10.5526L162.521 9.12706Z" fill="white"/>
<path d="M158.052 18.835H152.966H151.464C151.387 19.4129 151.271 19.9908 151.117 20.5687C151.001 21.1466 150.847 21.7245 150.693 22.3024C150.539 22.8803 150.385 23.4582 150.231 24.0362C150.077 24.6141 149.884 25.192 149.691 25.7699H152.774H154.97H158.052C158.129 25.192 158.283 24.6141 158.399 24.0362C158.514 23.4582 158.668 22.8803 158.822 22.3024C158.977 21.7245 159.131 21.1466 159.285 20.5687C159.439 19.9908 159.631 19.4129 159.824 18.835H158.052ZM156.395 20.6072C156.28 21.1851 156.125 21.763 155.971 22.341C155.817 22.9189 155.663 23.4968 155.509 24.0747C155.471 24.1903 155.432 24.2673 155.432 24.3829H153.043C153.082 24.2673 153.082 24.1517 153.12 24.0747C153.236 23.4968 153.39 22.9189 153.544 22.341C153.698 21.763 153.852 21.1851 154.006 20.6072C154.045 20.4916 154.084 20.3761 154.122 20.299H156.511C156.434 20.3761 156.434 20.4916 156.395 20.6072Z" fill="white"/>
<path d="M83.9249 15.0986L83.5781 16.5241C84.3101 16.4856 85.0422 16.4471 85.7742 16.4471C86.5062 16.4471 87.2382 16.4471 87.9317 16.5241L88.2785 15.0986C87.5465 15.1757 86.8144 15.1757 86.0824 15.1757C85.3889 15.1757 84.6569 15.1757 83.9249 15.0986Z" fill="white"/>
<path d="M89.0109 12.2856C88.2789 12.3627 87.5468 12.3627 86.8148 12.3627C86.0828 12.3627 85.3508 12.3627 84.6573 12.2856L84.3105 13.7112C85.0426 13.6726 85.7746 13.6341 86.5066 13.6341C87.2386 13.6341 87.9707 13.6341 88.6641 13.7112L89.0109 12.2856Z" fill="white"/>
<path d="M87.2774 10.4745H89.4735C90.2055 10.4745 90.9375 10.513 91.631 10.513L91.9778 9.08751C91.2457 9.12604 90.5137 9.12605 89.7817 9.12605H89.435C89.512 8.58666 89.6276 8.00874 89.7817 7.46936C89.9743 6.69881 90.2055 5.92826 90.5137 5.15771H86.661C86.6225 5.92826 86.4683 6.69881 86.2757 7.46936C86.1216 8.00874 85.9675 8.58666 85.7749 9.12605H85.4281C84.6961 9.12605 83.9641 9.08751 83.2706 9.08751L82.9238 10.513C83.6558 10.4745 84.3879 10.4745 85.1199 10.4745H87.2774Z" fill="white"/>
<path d="M107.965 5.38986C107.503 5.12017 107.002 4.92753 106.463 4.77342C105.923 4.61931 105.384 4.4652 104.768 4.42668C104.19 4.38815 103.573 4.38815 102.918 4.54226L102.803 4.88901C103.188 5.1587 103.535 5.46692 103.843 5.77514C104.151 6.08336 104.421 6.4301 104.729 6.73832C104.999 7.04654 105.268 7.39329 105.538 7.70151C105.654 7.85562 105.808 8.04825 105.923 8.20236C106.039 8.35647 106.193 8.51058 106.347 8.66469L109.237 6.23747C109.044 6.08336 108.852 5.92925 108.659 5.77514C108.389 5.65955 108.197 5.50544 107.965 5.38986Z" fill="white"/>
<path d="M96.0223 8.27947C96.6387 8.24094 97.2551 8.08683 97.8716 7.93272C98.488 7.77861 99.1045 7.54745 99.6824 7.31629C99.9906 7.2007 100.26 7.04659 100.53 6.89248C100.8 6.73837 101.069 6.58427 101.339 6.43016L99.6824 4.00293C99.4512 4.15704 99.2586 4.31115 99.0274 4.46526C98.7962 4.61937 98.6036 4.77348 98.411 4.96611C97.9872 5.27433 97.5634 5.62108 97.1396 5.9293C96.7158 6.27605 96.2534 6.58427 95.7911 6.89248C95.3288 7.2007 94.8279 7.50892 94.3271 7.77861L94.25 8.12536C94.7894 8.318 95.4058 8.318 96.0223 8.27947Z" fill="white"/>
<path d="M87.5861 18.8364H82.5005H80.9979C80.9209 19.4143 80.8053 19.9922 80.6897 20.5702C80.5741 21.1481 80.42 21.726 80.3044 22.3039C80.1503 22.8818 79.9962 23.4597 79.8421 24.0376C79.688 24.6155 79.4954 25.1934 79.3027 25.7714H82.3849H84.581H87.6632C87.7402 25.1934 87.8558 24.6155 88.0099 24.0376C88.1255 23.4597 88.2796 22.8818 88.3952 22.3039C88.5493 21.726 88.7034 21.1481 88.8575 20.5702C89.0116 19.9922 89.2043 19.4143 89.3969 18.8364H87.5861ZM85.968 20.6087C85.8524 21.1866 85.6983 21.7645 85.5827 22.3424C85.4286 22.9203 85.2745 23.4982 85.1204 24.0762C85.0818 24.1917 85.0433 24.2688 85.0433 24.3844H82.6546C82.6931 24.2688 82.6931 24.1532 82.7317 24.0762C82.8473 23.4982 83.0014 22.9203 83.1169 22.3424C83.2711 21.7645 83.4252 21.1866 83.5793 20.6087C83.6178 20.4931 83.6563 20.3775 83.6563 20.3005H86.045C86.0065 20.3775 85.968 20.4931 85.968 20.6087Z" fill="white"/>
<path d="M105.77 22.6117H103.844C103.073 22.6117 102.611 22.0338 102.765 21.3403L103.574 18.0654H100.183C100.029 18.6433 99.9137 19.2213 99.7596 19.7992C99.6825 20.1459 99.567 20.5312 99.4899 20.8779C99.4514 20.955 99.4514 21.0706 99.4129 21.1476C99.1046 22.3805 98.9505 23.5363 99.7596 24.4224C100.106 24.8077 100.569 25.1159 101.108 25.2701C101.686 25.4242 102.341 25.4242 102.957 25.4242C103.766 25.4242 104.537 25.4242 105.346 25.3471C105.385 25.3471 105.423 25.3471 105.462 25.3471C105.462 25.3471 107.311 25.5012 107.927 22.8428C108.39 21.032 108.505 20.6082 108.505 20.4927C108.544 20.4927 106.849 22.6887 105.77 22.6117Z" fill="white"/>
<path d="M102.226 16.6401H104.884C104.961 16.0237 105.077 15.4458 105.231 14.8293C105.346 14.2129 105.5 13.635 105.654 13.0185C105.809 12.4021 105.963 11.8242 106.155 11.2078C106.348 10.5913 106.502 10.0134 106.733 9.39697H103.728C103.458 9.39697 103.15 9.39697 102.881 9.39697C102.534 9.39697 102.226 9.4355 101.879 9.4355C101.224 9.4355 100.569 9.4355 99.9139 9.39697L99.5672 10.8225C100.222 10.784 100.877 10.784 101.532 10.784C101.879 10.784 102.187 10.8225 102.495 10.8225C102.649 10.8225 102.842 10.8225 102.996 10.8225C102.958 10.9766 102.958 11.0922 102.919 11.2463C102.803 11.8627 102.649 12.4406 102.495 13.0571C102.341 13.6735 102.187 14.2514 101.994 14.8679C101.956 14.9834 101.917 15.1376 101.879 15.2531H96.9858C97.0243 15.1376 97.0243 14.9834 97.0629 14.8679C97.1785 14.2514 97.3326 13.6735 97.4867 13.0571C97.6408 12.4406 97.7949 11.8627 97.9875 11.2463C98.1802 10.6298 98.3343 10.0519 98.5654 9.4355H95.098C95.0209 10.0519 94.9053 10.6298 94.7512 11.2463C94.6356 11.8627 94.4815 12.4406 94.3274 13.0571C94.1733 13.6735 94.0192 14.2514 93.8266 14.8679C93.6339 15.4843 93.4798 16.0622 93.2487 16.6787H94.9439C94.6356 18.0656 94.1733 19.7994 93.6339 21.0322C92.7478 23.1127 91.1682 24.7309 88.9336 25.8482C89.0106 25.8096 89.1262 25.8482 89.2033 25.8482C89.3574 25.8482 89.473 25.8482 89.6271 25.8096C90.0124 25.7711 90.4362 25.6941 90.86 25.617C93.1331 25.0776 95.3291 23.6136 96.6776 21.7257C97.1785 21.0322 97.5637 20.3002 97.7564 19.5297C97.7564 19.5297 98.1416 18.0271 98.4884 16.6787L102.226 16.6401Z" fill="white"/>
</svg>
